{
  "accessors": [
    {
      "bufferView": 2,
      "componentType": 5126,
      "count": 65533,
      "max": [
        4.480564117431641,
        2.6124088764190674,
        6.177092552185059
      ],
      "min": [
        -9.081907272338867,
        -6.060787200927734,
        -7.160472869873047
      ],
      "type": "VEC3"
    },
    {
      "bufferView": 2,
      "byteOffset": 786396,
      "componentType": 5126,
      "count": 65533,
      "max": [
        1.0,
        1.0,
        1.0
      ],
      "min": [
        -1.0,
        -1.0,
        -1.0
      ],
      "type": "VEC3"
    },
    {
      "bufferView": 1,
      "componentType": 5126,
      "count": 65533,
      "max": [
        0.9999999403953552,
        1.0
      ],
      "min": [
        0.0,
        0.00035452842712402344
      ],
      "type": "VEC2"
    },
    {
      "bufferView": 0,
      "componentType": 5125,
      "count": 316683,
      "type": "SCALAR"
    },
    {
      "bufferView": 2,
      "byteOffset": 1572792,
      "componentType": 5126,
      "count": 12492,
      "max": [
        4.419999599456787,
        1.3397495746612549,
        5.068090915679932
      ],
      "min": [
        -4.792021751403809,
        -4.586299419403076,
        -7.0457763671875
      ],
      "type": "VEC3"
    },
    {
      "bufferView": 2,
      "byteOffset": 1722696,
      "componentType": 5126,
      "count": 12492,
      "max": [
        1.0,
        1.0,
        0.999980092048645
      ],
      "min": [
        -1.0,
        -0.999999463558197,
        -1.0
      ],
      "type": "VEC3"
    },
    {
      "bufferView": 1,
      "byteOffset": 524264,
      "componentType": 5126,
      "count": 12492,
      "max": [
        0.9944924116134644,
        1.0
      ],
      "min": [
        0.0,
        0.0024451017379760742
      ],
      "type": "VEC2"
    },
    {
      "bufferView": 0,
      "byteOffset": 1266732,
      "componentType": 5125,
      "count": 43254,
      "type": "SCALAR"
    }
  ],
  "asset": {
    "extras": {
      "author": "suchartstudio (https://sketchfab.com/suchart.p)",
      "license": "CC-BY-4.0 (http://creativecommons.org/licenses/by/4.0/)",
      "source": "https://sketchfab.com/3d-models/isan-thai-house-hernkeay-fc28f1e1b5ac45e4803cd0f7642da0ab",
      "title": "ISAN THAI HOUSE HERNKEAY"
    },
    "generator": "Sketchfab-15.50.0",
    "version": "2.0"
  },
  "bufferViews": [
    {
      "buffer": 0,
      "byteLength": 1439748,
      "name": "floatBufferViews",
      "target": 34963
    },
    {
      "buffer": 0,
      "byteLength": 624200,
      "byteOffset": 1439748,
      "byteStride": 8,
      "name": "floatBufferViews",
      "target": 34962
    },
    {
      "buffer": 0,
      "byteLength": 1872600,
      "byteOffset": 2063948,
      "byteStride": 12,
      "name": "floatBufferViews",
      "target": 34962
    }
  ],
  "buffers": [
    {
      "byteLength": 3936548,
      "uri": "scene.bin"
    }
  ],
  "images": [
    {
      "uri": "textures/Material_baseColor.jpeg"
    }
  ],
  "materials": [
    {
      "doubleSided": true,
      "name": "Material",
      "pbrMetallicRoughness": {
        "baseColorTexture": {
          "index": 0
        },
        "metallicFactor": 0.0,
        "roughnessFactor": 0.5
      }
    }
  ],
  "meshes": [
    {
      "name": "Object_0",
      "primitives": [
        {
          "attributes": {
            "NORMAL": 1,
            "POSITION": 0,
            "TEXCOORD_0": 2
          },
          "indices": 3,
          "material": 0,
          "mode": 4
        }
      ]
    },
    {
      "name": "Object_1",
      "primitives": [
        {
          "attributes": {
            "NORMAL": 5,
            "POSITION": 4,
            "TEXCOORD_0": 6
          },
          "indices": 7,
          "material": 0,
          "mode": 4
        }
      ]
    }
  ],
  "nodes": [
    {
      "children": [
        1
      ],
      "matrix": [
        0.6666666865348816,
        0.0,
        0.0,
        0.0,
        0.0,
        1.4802974102831747e-16,
        -0.6666666865348816,
        0.0,
        0.0,
        0.6666666865348816,
        1.4802974102831747e-16,
        0.0,
        0.0,
        0.0,
        0.0,
        1.0
      ],
      "name": "Sketchfab_model"
    },
    {
      "children": [
        2
      ],
      "name": "root"
    },
    {
      "children": [
        3
      ],
      "matrix": [
        1.0,
        0.0,
        0.0,
        0.0,
        0.0,
        2.220446049250313e-16,
        1.0,
        0.0,
        0.0,
        -1.0,
        2.220446049250313e-16,
        0.0,
        0.0,
        0.0,
        0.0,
        1.0
      ],
      "name": "GLTF_SceneRootNode"
    },
    {
      "children": [
        4,
        5
      ],
      "matrix": [
        0.0,
        2.7755575615628914e-17,
        -1.0,
        0.0,
        0.25881905943103434,
        0.9659258224497546,
        0.0,
        0.0,
        0.9659258224497544,
        -0.2588190594310343,
        0.0,
        0.0,
        0.08187675476074219,
        4.598500728607178,
        -0.2089848518371582,
        1.0
      ],
      "name": "Cube.154_0"
    },
    {
      "mesh": 0,
      "name": "Object_4"
    },
    {
      "mesh": 1,
      "name": "Object_5"
    }
  ],
  "samplers": [
    {
      "magFilter": 9729,
      "minFilter": 9987,
      "wrapS": 10497,
      "wrapT": 10497
    }
  ],
  "scene": 0,
  "scenes": [
    {
      "name": "Sketchfab_Scene",
      "nodes": [
        0
      ]
    }
  ],
  "textures": [
    {
      "sampler": 0,
      "source": 0
    }
  ]
}
